<svg xmlns="http://www.w3.org/2000/svg" xmlns:xlink="http://www.w3.org/1999/xlink" width="220" zoomAndPan="magnify" viewBox="0 0 165 82.499998" height="110" preserveAspectRatio="xMidYMid meet" version="1.0"><defs><clipPath id="dbe3c10315"><path d="M 0.496094 0 L 164.503906 0 L 164.503906 82.003906 L 0.496094 82.003906 Z M 0.496094 0 " clip-rule="nonzero"/></clipPath></defs><g clip-path="url(#dbe3c10315)"><path fill="#ffffff" d="M 0.496094 0 L 164.503906 0 L 164.503906 89.457031 L 0.496094 89.457031 Z M 0.496094 0 " fill-opacity="1" fill-rule="nonzero"/><path fill="#ffffff" d="M 0.496094 0 L 164.503906 0 L 164.503906 82.003906 L 0.496094 82.003906 Z M 0.496094 0 " fill-opacity="1" fill-rule="nonzero"/><path fill="#ffffff" d="M 0.496094 0 L 164.503906 0 L 164.503906 82.003906 L 0.496094 82.003906 Z M 0.496094 0 " fill-opacity="1" fill-rule="nonzero"/></g><path fill="#5dc23e" d="M 17.933594 32.425781 C 14.660156 32.425781 12.121094 34.859375 12.121094 38.25 C 12.121094 41.109375 14.128906 44.070312 17.933594 44.070312 C 19.515625 44.070312 20.996094 43.4375 22.054688 42.375 C 23.117188 41.210938 23.75 39.730469 23.636719 38.25 C 23.636719 36.664062 23.105469 35.285156 21.945312 34.222656 C 20.894531 33.058594 19.523438 32.425781 17.933594 32.425781 M 17.617188 46.390625 C 12.4375 46.390625 9.695312 42.160156 9.695312 38.238281 C 9.695312 33.582031 13.070312 30.199219 17.617188 30.199219 C 20.363281 30.199219 22.054688 31.46875 22.800781 32.210938 C 22.902344 32.316406 23.011719 32.316406 23.117188 32.316406 C 23.328125 32.316406 23.535156 32.101562 23.535156 31.894531 L 23.535156 26.289062 C 23.535156 25.652344 24.066406 25.019531 24.800781 25.019531 C 25.433594 25.019531 26.066406 25.550781 26.066406 26.289062 L 26.066406 44.808594 C 26.066406 45.441406 25.535156 45.972656 24.902344 45.972656 C 24.269531 45.972656 23.738281 45.441406 23.738281 44.808594 L 23.738281 44.703125 C 23.738281 44.386719 23.527344 44.285156 23.320312 44.285156 C 23.21875 44.285156 23.105469 44.285156 23.003906 44.386719 C 21.535156 45.65625 19.730469 46.390625 17.617188 46.390625 " fill-opacity="1" fill-rule="nonzero"/><path fill="#5dc23e" d="M 35.726562 32.464844 C 32.453125 32.464844 30.027344 34.894531 30.027344 38.285156 C 30.027344 41.566406 32.453125 44.109375 35.726562 44.109375 C 39.003906 44.109375 41.429688 41.675781 41.429688 38.285156 C 41.429688 34.894531 39.003906 32.464844 35.726562 32.464844 M 35.726562 46.316406 C 31.078125 46.316406 27.589844 42.824219 27.589844 38.277344 C 27.589844 33.621094 31.078125 30.125 35.726562 30.125 C 40.378906 30.125 43.867188 33.621094 43.867188 38.277344 C 43.96875 42.832031 40.371094 46.316406 35.726562 46.316406 " fill-opacity="1" fill-rule="nonzero"/><path fill="#5dc23e" d="M 51.875 46.316406 C 47.753906 46.214844 45.328125 43.671875 45.328125 39.226562 L 45.328125 31.71875 C 45.328125 31.085938 45.859375 30.453125 46.59375 30.453125 C 47.226562 30.453125 47.859375 30.980469 47.859375 31.71875 L 47.859375 38.808594 C 47.859375 41.136719 48.601562 43.996094 52.398438 43.996094 L 52.5 43.996094 C 55.457031 43.996094 57.152344 42.199219 57.152344 39.234375 L 57.152344 31.828125 C 57.152344 31.195312 57.679688 30.5625 58.414062 30.5625 C 59.152344 30.5625 59.679688 31.09375 59.679688 31.828125 L 59.679688 44.945312 C 59.679688 45.476562 59.261719 46.007812 58.621094 46.007812 C 57.878906 46.007812 57.246094 45.375 57.246094 44.628906 L 57.246094 44.3125 C 57.246094 44.210938 57.140625 44.210938 57.140625 44.210938 C 57.140625 44.210938 57.039062 44.210938 57.039062 44.3125 C 55.996094 45.578125 54.203125 46.316406 51.875 46.316406 Z M 51.875 46.316406 " fill-opacity="1" fill-rule="nonzero"/><path fill="#5dc23e" d="M 69.820312 32.425781 C 66.546875 32.425781 64.117188 34.859375 64.117188 38.25 C 64.117188 41.527344 66.546875 44.070312 69.714844 44.070312 C 73.519531 44.070312 75.53125 41.210938 75.53125 38.25 C 75.53125 34.960938 73.101562 32.425781 69.820312 32.425781 M 70.03125 46.390625 C 68.023438 46.390625 66.125 45.644531 64.851562 44.378906 C 64.75 44.277344 64.636719 44.277344 64.535156 44.277344 C 64.320312 44.277344 64.117188 44.488281 64.117188 44.695312 L 64.117188 44.796875 C 64.117188 45.433594 63.585938 45.960938 62.953125 45.960938 C 62.320312 45.960938 61.792969 45.433594 61.792969 44.796875 L 61.792969 26.277344 C 61.792969 25.644531 62.320312 25.011719 63.058594 25.011719 C 63.691406 25.011719 64.320312 25.542969 64.320312 26.277344 L 64.320312 31.988281 C 64.320312 32.304688 64.535156 32.410156 64.742188 32.410156 C 64.84375 32.410156 64.953125 32.410156 65.058594 32.304688 C 66.433594 31.039062 68.230469 30.292969 70.128906 30.191406 C 74.667969 30.191406 78.050781 33.683594 78.050781 38.230469 C 77.957031 42.898438 74.683594 46.390625 70.03125 46.390625 " fill-opacity="1" fill-rule="nonzero"/><path fill="#5dc23e" d="M 80.925781 45.90625 C 80.292969 45.90625 79.660156 45.375 79.660156 44.640625 L 79.660156 26.121094 C 79.660156 25.484375 80.191406 24.851562 80.925781 24.851562 C 81.660156 24.851562 82.191406 25.382812 82.191406 26.121094 L 82.191406 44.640625 C 82.085938 45.375 81.566406 45.90625 80.925781 45.90625 " fill-opacity="1" fill-rule="nonzero"/><path fill="#7742a5" d="M 103.75 45.90625 C 103.117188 45.90625 102.484375 45.375 102.484375 44.640625 L 102.484375 26.121094 C 102.484375 25.484375 103.015625 24.851562 103.75 24.851562 C 104.382812 24.851562 105.015625 25.382812 105.015625 26.121094 L 105.015625 44.640625 C 104.914062 45.375 104.382812 45.90625 103.75 45.90625 " fill-opacity="1" fill-rule="nonzero"/><path fill="#5dc23e" d="M 92.023438 32.351562 C 89.378906 32.351562 87.054688 34.046875 86.523438 36.480469 C 86.523438 36.582031 86.523438 36.691406 86.628906 36.796875 C 86.730469 36.898438 86.839844 37.011719 86.945312 37.011719 L 96.980469 37.011719 C 97.082031 37.011719 97.296875 36.90625 97.296875 36.796875 C 97.398438 36.691406 97.398438 36.582031 97.398438 36.480469 C 96.988281 34.476562 94.875 32.351562 92.023438 32.351562 C 92.125 32.351562 92.125 32.351562 92.023438 32.351562 M 92.023438 46.324219 C 86.738281 46.324219 83.882812 42.199219 83.882812 38.285156 C 83.882812 33.738281 87.472656 30.136719 91.910156 30.136719 C 94.023438 30.136719 96.03125 30.878906 97.511719 32.359375 C 98.886719 33.738281 99.734375 35.539062 99.9375 37.550781 C 99.9375 37.96875 99.835938 38.292969 99.519531 38.609375 C 99.203125 38.929688 98.886719 39.03125 98.457031 39.03125 L 86.839844 39.03125 C 86.738281 39.03125 86.628906 39.132812 86.523438 39.132812 C 86.421875 39.234375 86.421875 39.347656 86.421875 39.449219 C 86.839844 42.515625 89.484375 44.109375 91.917969 44.109375 L 92.023438 44.109375 C 94.03125 44.109375 95.722656 43.15625 96.773438 41.566406 C 96.988281 41.25 97.304688 41.035156 97.722656 41.035156 C 98.144531 41.035156 98.570312 41.25 98.785156 41.667969 C 98.996094 42.085938 98.996094 42.515625 98.679688 42.832031 C 98.046875 43.78125 97.304688 44.527344 96.355469 45.058594 C 95.082031 45.898438 93.601562 46.324219 92.023438 46.324219 " fill-opacity="1" fill-rule="nonzero"/><path fill="#7742a5" d="M 146.957031 32.425781 C 145.375 32.425781 144 33.058594 142.835938 34.121094 C 141.777344 35.183594 141.253906 36.664062 141.253906 38.25 C 141.253906 39.832031 141.886719 41.3125 142.949219 42.375 C 144.007812 43.4375 145.488281 43.960938 147.066406 43.960938 C 150.34375 43.960938 152.769531 41.527344 152.769531 38.136719 C 152.769531 35.390625 150.761719 32.425781 146.957031 32.425781 M 140.195312 51.578125 C 139.5625 51.578125 138.929688 51.046875 138.929688 50.3125 L 138.929688 31.691406 C 138.929688 31.054688 139.460938 30.527344 140.09375 30.527344 C 140.726562 30.527344 141.253906 31.054688 141.253906 31.691406 L 141.253906 31.902344 C 141.253906 32.222656 141.46875 32.324219 141.671875 32.324219 C 141.777344 32.324219 141.886719 32.324219 141.988281 32.222656 C 143.367188 30.84375 145.160156 30.105469 147.273438 30.105469 C 152.34375 30.105469 155.199219 34.335938 155.199219 38.257812 C 155.199219 42.804688 151.820312 46.296875 147.273438 46.296875 C 144.527344 46.296875 142.835938 45.03125 142.09375 44.285156 C 141.988281 44.183594 141.878906 44.183594 141.777344 44.183594 C 141.5625 44.183594 141.355469 44.394531 141.355469 44.601562 L 141.355469 50.3125 C 141.46875 51.046875 140.9375 51.578125 140.195312 51.578125 " fill-opacity="1" fill-rule="nonzero"/><path fill="#7742a5" d="M 129.164062 44.035156 C 127.582031 44.035156 126.101562 43.503906 125.042969 42.449219 C 123.980469 41.386719 123.351562 39.90625 123.351562 38.324219 C 123.351562 36.738281 123.878906 35.257812 124.929688 34.195312 C 125.992188 33.136719 127.46875 32.5 129.050781 32.5 C 132.855469 32.5 134.863281 35.359375 134.863281 38.324219 C 134.976562 41.5 132.4375 44.035156 129.164062 44.035156 M 114.792969 44.035156 C 113.210938 44.035156 111.730469 43.503906 110.671875 42.449219 C 109.613281 41.386719 108.980469 39.90625 108.980469 38.324219 C 108.980469 36.738281 109.507812 35.257812 110.558594 34.195312 C 111.621094 33.136719 113.097656 32.5 114.679688 32.5 C 118.484375 32.5 120.496094 35.359375 120.496094 38.324219 C 120.503906 41.5 118.074219 44.035156 114.792969 44.035156 M 129.273438 30.386719 L 114.484375 30.386719 C 110.148438 30.386719 106.664062 33.878906 106.664062 38.21875 L 106.664062 38.324219 C 106.664062 42.664062 110.148438 46.15625 114.484375 46.15625 L 129.273438 46.15625 C 133.609375 46.15625 137.097656 42.664062 137.097656 38.324219 L 137.097656 38.21875 C 137.085938 33.878906 133.601562 30.386719 129.273438 30.386719 " fill-opacity="1" fill-rule="nonzero"/><path fill="#000000" d="M 27.132812 56.300781 C 27.765625 56.300781 28.082031 56.089844 28.082031 55.558594 C 28.082031 55.027344 27.664062 54.8125 27.023438 54.8125 L 26.074219 54.8125 L 26.074219 56.292969 L 27.132812 56.292969 Z M 27.023438 54.402344 C 27.65625 54.402344 27.972656 54.1875 27.972656 53.65625 C 27.972656 53.125 27.65625 53.023438 27.023438 53.023438 L 26.074219 53.023438 L 26.074219 54.402344 Z M 25.542969 52.492188 L 27.023438 52.492188 C 27.972656 52.492188 28.5 52.808594 28.5 53.554688 C 28.5 54.085938 28.183594 54.402344 27.757812 54.503906 C 28.289062 54.605469 28.707031 54.925781 28.707031 55.566406 C 28.707031 56.3125 28.175781 56.730469 27.226562 56.730469 L 25.644531 56.730469 L 25.644531 52.5 L 25.542969 52.5 Z M 25.542969 52.492188 " fill-opacity="1" fill-rule="nonzero"/><path fill="#000000" d="M 29.691406 52.566406 L 32.230469 52.566406 L 32.230469 52.988281 L 30.117188 52.988281 L 30.117188 54.253906 L 31.699219 54.253906 L 31.699219 54.671875 L 30.222656 54.671875 L 30.222656 56.15625 L 32.332031 56.15625 L 32.332031 56.574219 L 29.691406 56.574219 Z M 29.691406 52.566406 " fill-opacity="1" fill-rule="nonzero"/><path fill="#000000" d="M 34.425781 53.03125 L 33.050781 53.03125 L 33.050781 52.613281 L 36.222656 52.613281 L 36.222656 53.03125 L 34.84375 53.03125 L 34.84375 56.738281 L 34.316406 56.738281 L 34.316406 53.03125 Z M 34.425781 53.03125 " fill-opacity="1" fill-rule="nonzero"/><path fill="#000000" d="M 38.34375 53.03125 L 36.964844 53.03125 L 36.964844 52.613281 L 40.136719 52.613281 L 40.136719 53.03125 L 38.761719 53.03125 L 38.761719 56.738281 L 38.230469 56.738281 L 38.230469 53.03125 Z M 38.34375 53.03125 " fill-opacity="1" fill-rule="nonzero"/><path fill="#000000" d="M 41.03125 52.566406 L 43.570312 52.566406 L 43.570312 52.988281 L 41.457031 52.988281 L 41.457031 54.253906 L 43.039062 54.253906 L 43.039062 54.671875 L 41.457031 54.671875 L 41.457031 56.15625 L 43.679688 56.15625 L 43.679688 56.574219 L 41.03125 56.574219 C 41.03125 56.589844 41.03125 52.566406 41.03125 52.566406 Z M 41.03125 52.566406 " fill-opacity="1" fill-rule="nonzero"/><path fill="#000000" d="M 46.0625 54.46875 C 46.695312 54.46875 47.121094 54.253906 47.121094 53.722656 C 47.121094 53.191406 46.804688 52.976562 46.0625 52.976562 L 45.113281 52.976562 L 45.113281 54.457031 L 46.0625 54.457031 Z M 44.6875 52.558594 L 46.164062 52.558594 C 47.113281 52.558594 47.644531 52.976562 47.644531 53.722656 C 47.644531 54.355469 47.226562 54.785156 46.695312 54.886719 L 47.753906 56.789062 L 47.226562 56.789062 L 46.277344 54.988281 L 45.328125 54.988281 L 45.328125 56.789062 L 44.796875 56.789062 L 44.796875 52.558594 Z M 44.6875 52.558594 " fill-opacity="1" fill-rule="nonzero"/><path fill="#000000" d="M 49.785156 55.6875 L 50.203125 55.472656 C 50.414062 56.003906 50.835938 56.320312 51.363281 56.320312 C 51.996094 56.320312 52.3125 56.105469 52.3125 55.578125 C 52.3125 55.15625 52.101562 54.941406 51.253906 54.730469 C 50.40625 54.414062 49.878906 54.199219 49.878906 53.460938 C 49.878906 52.828125 50.40625 52.398438 51.253906 52.398438 C 52.101562 52.398438 52.519531 52.820312 52.734375 53.351562 L 52.3125 53.566406 C 52.101562 53.035156 51.679688 52.820312 51.253906 52.820312 C 50.722656 52.820312 50.40625 53.035156 50.40625 53.453125 C 50.40625 53.871094 50.722656 54.085938 51.46875 54.300781 C 52.3125 54.515625 52.84375 54.832031 52.84375 55.566406 C 52.84375 56.3125 52.210938 56.730469 51.363281 56.730469 C 50.628906 56.851562 49.996094 56.433594 49.785156 55.6875 " fill-opacity="1" fill-rule="nonzero"/><path fill="#000000" d="M 56.878906 54.652344 C 56.878906 53.59375 56.351562 52.957031 55.613281 52.957031 C 54.871094 52.957031 54.347656 53.59375 54.347656 54.652344 C 54.347656 55.714844 54.878906 56.347656 55.613281 56.347656 C 56.351562 56.347656 56.878906 55.714844 56.878906 54.652344 M 53.707031 54.652344 C 53.707031 53.273438 54.453125 52.429688 55.503906 52.429688 C 56.5625 52.429688 57.300781 53.273438 57.300781 54.652344 C 57.300781 56.03125 56.554688 56.878906 55.503906 56.878906 C 54.554688 56.769531 53.707031 56.03125 53.707031 54.652344 " fill-opacity="1" fill-rule="nonzero"/><path fill="#000000" d="M 58.414062 52.566406 L 60.953125 52.566406 L 60.953125 52.988281 L 58.945312 52.988281 L 58.945312 54.363281 L 60.425781 54.363281 L 60.425781 54.785156 L 58.945312 54.785156 L 58.945312 56.683594 L 58.414062 56.683594 C 58.414062 56.695312 58.414062 52.566406 58.414062 52.566406 Z M 58.414062 52.566406 " fill-opacity="1" fill-rule="nonzero"/><path fill="#000000" d="M 62.972656 53.03125 L 61.597656 53.03125 L 61.597656 52.613281 L 64.769531 52.613281 L 64.769531 53.03125 L 63.390625 53.03125 L 63.390625 56.738281 L 62.863281 56.738281 L 62.863281 53.03125 Z M 62.972656 53.03125 " fill-opacity="1" fill-rule="nonzero"/><path fill="#000000" d="M 65.558594 52.566406 L 66.089844 52.566406 L 66.722656 55 C 66.824219 55.316406 66.933594 55.742188 66.933594 56.058594 C 67.039062 55.742188 67.039062 55.425781 67.148438 55 L 67.78125 52.566406 L 68.3125 52.566406 L 68.945312 55 C 69.046875 55.417969 69.15625 55.632812 69.15625 55.949219 C 69.261719 55.632812 69.261719 55.316406 69.371094 55 L 70.003906 52.566406 L 70.421875 52.566406 L 69.363281 56.796875 L 68.945312 56.796875 L 68.097656 53.304688 L 67.25 56.796875 L 66.832031 56.796875 Z M 65.558594 52.566406 " fill-opacity="1" fill-rule="nonzero"/><path fill="#000000" d="M 73.15625 55.121094 L 72.523438 53.109375 L 71.890625 55.121094 Z M 72.199219 52.472656 L 72.730469 52.472656 L 74.210938 56.703125 L 73.679688 56.703125 L 73.261719 55.539062 L 71.566406 55.539062 L 71.148438 56.703125 L 70.617188 56.703125 Z M 72.199219 52.472656 " fill-opacity="1" fill-rule="nonzero"/><path fill="#000000" d="M 76.5625 54.46875 C 77.195312 54.46875 77.621094 54.253906 77.621094 53.722656 C 77.621094 53.191406 77.304688 52.976562 76.5625 52.976562 L 75.613281 52.976562 L 75.613281 54.457031 L 76.5625 54.457031 Z M 75.1875 52.558594 L 76.664062 52.558594 C 77.613281 52.558594 78.144531 52.976562 78.144531 53.722656 C 78.144531 54.355469 77.726562 54.785156 77.195312 54.886719 L 78.253906 56.789062 L 77.726562 56.789062 L 76.777344 54.988281 L 75.828125 54.988281 L 75.828125 56.789062 L 75.296875 56.789062 L 75.296875 52.558594 Z M 75.1875 52.558594 " fill-opacity="1" fill-rule="nonzero"/><path fill="#000000" d="M 79.183594 52.566406 L 81.722656 52.566406 L 81.722656 52.988281 L 79.613281 52.988281 L 79.613281 54.253906 L 81.195312 54.253906 L 81.195312 54.671875 L 79.613281 54.671875 L 79.613281 56.15625 L 81.835938 56.15625 L 81.835938 56.574219 L 79.195312 56.574219 L 79.195312 52.566406 Z M 79.183594 52.566406 " fill-opacity="1" fill-rule="nonzero"/><path fill="#000000" d="M 83.128906 56.742188 L 82.914062 56.742188 L 82.914062 56.105469 L 83.546875 56.105469 L 83.546875 56.636719 L 83.230469 57.269531 L 83.019531 57.269531 Z M 83.128906 56.742188 " fill-opacity="1" fill-rule="nonzero"/><path fill="#000000" d="M 87.539062 56.300781 C 88.171875 56.300781 88.488281 56.089844 88.488281 55.558594 C 88.488281 55.027344 88.070312 54.8125 87.425781 54.8125 L 86.476562 54.8125 L 86.476562 56.292969 L 87.539062 56.292969 Z M 87.4375 54.402344 C 88.070312 54.402344 88.382812 54.1875 88.382812 53.65625 C 88.382812 53.125 88.070312 53.023438 87.4375 53.023438 L 86.488281 53.023438 L 86.488281 54.402344 Z M 85.957031 52.492188 L 87.4375 52.492188 C 88.382812 52.492188 88.914062 52.808594 88.914062 53.554688 C 88.914062 54.085938 88.597656 54.402344 88.171875 54.503906 C 88.699219 54.605469 89.121094 54.925781 89.121094 55.566406 C 89.121094 56.3125 88.589844 56.730469 87.640625 56.730469 L 86.058594 56.730469 Z M 85.957031 52.492188 " fill-opacity="1" fill-rule="nonzero"/><path fill="#000000" d="M 90.097656 52.566406 L 92.636719 52.566406 L 92.636719 52.988281 L 90.523438 52.988281 L 90.523438 54.253906 L 92.105469 54.253906 L 92.105469 54.671875 L 90.523438 54.671875 L 90.523438 56.15625 L 92.746094 56.15625 L 92.746094 56.574219 L 90.105469 56.574219 L 90.105469 52.566406 Z M 90.097656 52.566406 " fill-opacity="1" fill-rule="nonzero"/><path fill="#000000" d="M 94.832031 53.03125 L 93.453125 53.03125 L 93.453125 52.613281 L 96.625 52.613281 L 96.625 53.03125 L 95.25 53.03125 L 95.25 56.738281 L 94.71875 56.738281 Z M 94.832031 53.03125 " fill-opacity="1" fill-rule="nonzero"/><path fill="#000000" d="M 98.746094 53.03125 L 97.371094 53.03125 L 97.371094 52.613281 L 100.542969 52.613281 L 100.542969 53.03125 L 99.164062 53.03125 L 99.164062 56.738281 L 98.636719 56.738281 Z M 98.746094 53.03125 " fill-opacity="1" fill-rule="nonzero"/><path fill="#000000" d="M 101.433594 52.566406 L 103.972656 52.566406 L 103.972656 52.988281 L 101.863281 52.988281 L 101.863281 54.253906 L 103.445312 54.253906 L 103.445312 54.671875 L 101.964844 54.671875 L 101.964844 56.15625 L 104.1875 56.15625 L 104.1875 56.574219 L 101.546875 56.574219 L 101.546875 52.550781 Z M 101.433594 52.566406 " fill-opacity="1" fill-rule="nonzero"/><path fill="#000000" d="M 106.46875 54.46875 C 107.097656 54.46875 107.527344 54.253906 107.527344 53.722656 C 107.527344 53.191406 107.210938 52.976562 106.46875 52.976562 L 105.519531 52.976562 L 105.519531 54.457031 L 106.46875 54.457031 Z M 105.089844 52.558594 L 106.570312 52.558594 C 107.519531 52.558594 108.046875 52.976562 108.046875 53.722656 C 108.046875 54.355469 107.628906 54.785156 107.097656 54.886719 L 108.160156 56.789062 L 107.628906 56.789062 L 106.679688 54.988281 L 105.730469 54.988281 L 105.730469 56.789062 L 105.097656 56.789062 L 105.097656 52.558594 Z M 105.089844 52.558594 " fill-opacity="1" fill-rule="nonzero"/><path fill="#000000" d="M 112.011719 56.300781 C 112.644531 56.300781 112.960938 56.089844 112.960938 55.558594 C 112.960938 55.027344 112.539062 54.8125 111.898438 54.8125 L 110.949219 54.8125 L 110.949219 56.292969 L 112.011719 56.292969 Z M 111.898438 54.402344 C 112.53125 54.402344 112.847656 54.1875 112.847656 53.65625 C 112.847656 53.125 112.53125 53.023438 111.898438 53.023438 L 110.949219 53.023438 L 110.949219 54.402344 Z M 110.421875 52.492188 L 111.898438 52.492188 C 112.847656 52.492188 113.378906 52.808594 113.378906 53.554688 C 113.378906 54.085938 113.0625 54.402344 112.632812 54.503906 C 113.164062 54.605469 113.582031 54.925781 113.582031 55.566406 C 113.582031 56.3125 113.054688 56.730469 112.105469 56.730469 L 110.53125 56.730469 Z M 110.421875 52.492188 " fill-opacity="1" fill-rule="nonzero"/><path fill="#000000" d="M 114.503906 55.25 L 114.503906 52.5 L 115.035156 52.5 L 115.035156 55.148438 C 115.035156 55.78125 115.347656 56.3125 116.09375 56.3125 C 116.835938 56.3125 117.152344 55.890625 117.152344 55.148438 L 117.152344 52.5 L 117.683594 52.5 L 117.683594 55.25 C 117.683594 56.097656 117.152344 56.730469 116.101562 56.730469 C 115.023438 56.832031 114.503906 56.097656 114.503906 55.25 " fill-opacity="1" fill-rule="nonzero"/><path fill="#000000" d="M 118.625 55.6875 L 119.042969 55.472656 C 119.257812 56.003906 119.675781 56.320312 120.207031 56.320312 C 120.839844 56.320312 121.15625 56.105469 121.15625 55.578125 C 121.15625 55.15625 120.941406 54.941406 120.09375 54.730469 C 119.25 54.414062 118.71875 54.199219 118.71875 53.460938 C 118.71875 52.828125 119.25 52.398438 120.09375 52.398438 C 120.941406 52.398438 121.359375 52.820312 121.574219 53.351562 L 121.15625 53.566406 C 120.941406 53.035156 120.523438 52.820312 120.09375 52.820312 C 119.566406 52.820312 119.25 53.035156 119.25 53.453125 C 119.25 53.871094 119.566406 54.085938 120.308594 54.300781 C 121.15625 54.515625 121.683594 54.832031 121.683594 55.566406 C 121.683594 56.3125 121.050781 56.730469 120.207031 56.730469 C 119.367188 56.851562 118.839844 56.433594 118.625 55.6875 " fill-opacity="1" fill-rule="nonzero"/><path fill="#000000" d="M 122.683594 52.582031 L 123.148438 52.582031 L 123.148438 56.808594 L 122.683594 56.808594 Z M 122.683594 52.582031 " fill-opacity="1" fill-rule="nonzero"/><path fill="#000000" d="M 124.566406 52.566406 L 125.097656 52.566406 L 127.320312 55.847656 L 127.320312 52.566406 L 127.738281 52.566406 L 127.738281 56.796875 L 127.320312 56.796875 L 124.996094 53.414062 L 124.996094 56.796875 L 124.574219 56.796875 L 124.574219 52.566406 Z M 124.566406 52.566406 " fill-opacity="1" fill-rule="nonzero"/><path fill="#000000" d="M 128.976562 52.566406 L 131.515625 52.566406 L 131.515625 52.988281 L 129.402344 52.988281 L 129.402344 54.253906 L 130.984375 54.253906 L 130.984375 54.671875 L 129.402344 54.671875 L 129.402344 56.15625 L 131.625 56.15625 L 131.625 56.574219 L 128.984375 56.574219 L 128.984375 52.566406 Z M 128.976562 52.566406 " fill-opacity="1" fill-rule="nonzero"/><path fill="#000000" d="M 132.398438 55.6875 L 132.816406 55.472656 C 133.03125 56.003906 133.449219 56.320312 133.980469 56.320312 C 134.613281 56.320312 134.929688 56.105469 134.929688 55.578125 C 134.929688 55.15625 134.714844 54.941406 133.871094 54.730469 C 133.023438 54.414062 132.492188 54.199219 132.492188 53.460938 C 132.492188 52.828125 133.023438 52.398438 133.871094 52.398438 C 134.714844 52.398438 135.136719 52.820312 135.347656 53.351562 L 134.929688 53.566406 C 134.714844 53.035156 134.296875 52.820312 133.871094 52.820312 C 133.339844 52.820312 133.023438 53.035156 133.023438 53.453125 C 133.023438 53.871094 133.339844 54.085938 134.082031 54.300781 C 134.929688 54.515625 135.460938 54.832031 135.460938 55.566406 C 135.460938 56.3125 134.828125 56.730469 133.980469 56.730469 C 133.132812 56.851562 132.605469 56.433594 132.398438 55.6875 " fill-opacity="1" fill-rule="nonzero"/><path fill="#000000" d="M 136.390625 55.6875 L 136.808594 55.472656 C 137.023438 56.003906 137.441406 56.320312 137.972656 56.320312 C 138.605469 56.320312 138.921875 56.105469 138.921875 55.578125 C 138.921875 55.15625 138.707031 54.941406 137.859375 54.730469 C 137.015625 54.414062 136.484375 54.199219 136.484375 53.460938 C 136.484375 52.828125 137.015625 52.398438 137.859375 52.398438 C 138.707031 52.398438 139.125 52.820312 139.339844 53.351562 L 138.921875 53.566406 C 138.707031 53.035156 138.289062 52.820312 137.859375 52.820312 C 137.332031 52.820312 137.015625 53.035156 137.015625 53.453125 C 137.015625 53.871094 137.332031 54.085938 138.074219 54.300781 C 138.921875 54.515625 139.449219 54.832031 139.449219 55.566406 C 139.449219 56.3125 138.816406 56.730469 137.972656 56.730469 C 137.132812 56.851562 136.605469 56.433594 136.390625 55.6875 " fill-opacity="1" fill-rule="nonzero"/></svg>